<svg xmlns="http://www.w3.org/2000/svg" xmlns:xlink="http://www.w3.org/1999/xlink" viewBox="0 0 512 128"><defs><linearGradient id="a" x1="290.4" y1="3.62" x2="415.34" y2="101.43" gradientUnits="userSpaceOnUse"><stop offset="0" stop-color="#0993ee"/><stop offset="1" stop-color="#006ffa"/></linearGradient></defs><title>sc-logo</title><path d="M23,73.61H34.38c.27,7,6.91,11.67,16.7,11.67,9.24,0,15.44-3.41,15.44-8.44,0-12.57-40.13-4.94-40.13-26.76C26.39,39.22,36.26,32,51.08,32,63.47,32,73.61,39,76.48,49.63l-11,2.79c-1.44-5.84-7.18-9.7-14.36-9.7-7.64,0-12.75,3-12.75,7.36,0,9.52,40.13,4.22,40.13,26.76,0,11.49-10.95,19.21-27.38,19.21C34.47,96.05,23.24,87.07,23,73.61Z"/><path d="M85.11,33.2h12V94.8h-12Z"/><path d="M106.83,33.2h14.91l19.84,46.42L161.42,33.2h14.91V94.8h-12V51.07L146.7,94.8H136.46L118.87,51.07V94.8h-12Z"/><path d="M186,33.2h27.38c12.75,0,21.28,7.64,21.28,19,0,11.58-8.53,19.3-21.28,19.3H198.06V94.8H186Zm27.38,27.57c5.57,0,9.25-3.41,9.25-8.53,0-4.94-3.68-8.26-9.25-8.26H198.06V60.77Z"/><rect x="246.03" y="14.5" width="243" height="99" rx="9.94" style="fill:url(#a)"/><path d="M273.86,64c0-15.13,10.12-25.24,25.25-25.24,11,0,20.29,7.56,23.12,18.88H312.9c-2.34-6.23-7.85-10.4-13.79-10.4-9.48,0-15.77,6.72-15.77,16.76s6.29,16.76,15.77,16.76c6.64,0,12.3-4.6,14.21-11.53h9.12c-2.33,12-11.67,20-23.33,20C284,89.24,273.86,79.13,273.86,64Z" style="fill:#fff"/><path d="M328.38,39.75h9.47V59.12H360.2V39.75h9.47v48.5H360.2V67.61H337.85V88.25h-9.47Z" style="fill:#fff"/><path d="M409.12,75.81H389.46l-4.8,12.44H374.47l20-48.5h9.76l19.87,48.5H414Zm-3.32-8.49-6.51-16.68-6.5,16.68Z" style="fill:#fff"/><path d="M434.57,48.23h-14V39.75h37.48v8.48h-14v40h-9.48Z" style="fill:#fff"/></svg>